<svg xmlns="http://www.w3.org/2000/svg" xmlns:xlink="http://www.w3.org/1999/xlink" viewBox="0 0 232.93 286.83"><defs><style>.cls-1{fill:none;}.cls-2,.cls-3,.cls-9{fill:#fff;}.cls-2{stroke:#848689;}.cls-2,.cls-3{stroke-miterlimit:10;stroke-width:0.25px;}.cls-3{font-size:39px;stroke:#95979a;font-family:AzoSansUber-Regular, Azo Sans Uber;}.cls-4{letter-spacing:-0.03em;}.cls-5{letter-spacing:-0.03em;}.cls-6{clip-path:url(#clip-path);}.cls-7{fill:#ffde17;}.cls-8{fill:#bec0c2;}.cls-10{fill:#999;}</style><clipPath id="clip-path" transform="translate(0 0.27)"><path class="cls-1" d="M196.36,81.43A81.43,81.43,0,1,1,114.93,0,81.43,81.43,0,0,1,196.36,81.43Zm-53.11,1.82a37,37,0,1,0-37,37A37,37,0,0,0,143.25,83.25Z"/></clipPath></defs><g id="Layer_2" data-name="Layer 2"><g id="Layer_1-2" data-name="Layer 1"><path class="cls-2" d="M190.12,181.85c-2.47.94-22,.9-22.32,1.2-.72,1-1.13,6.73-.48,8.88,1.69-.24,3.69-1.09,5-1.2,4.32-.35,14,1.61,15.12,2.88-.08.16-1.6.32-1.68.48-4.24.95-17.25-.42-18.48.48,0,5.34.15,13.53,1.44,17.52,4.88.65,13.05.64,17.52-1,1-.36,3.32-1,4.08-1.2-.55,2.38-.07,5.28-1.2,7-2,3-22.62,5.53-25.44,2.16,2.53-12.59.72-33.59,1.2-40.8,1.23,1,1,2.27,2.88,2.64,4.19-2,17.12-.93,22.32-.24Z" transform="translate(0 0.27)"/><path class="cls-2" d="M204,225.29l-1.92-5c-1.06-7.72-.75-18.55-.48-26.16.12-3.33,1.21-8-1.2-8.88-.93-1.27-2.54-1.72-4.8-1.68.32-.92,1.68-.5,2.4-1,12.31-3.89,14.24,4.63,21.6,8.64,2.81,1.53,1.54,2.51,3.84,2.88l1-14.4c2.54,1.17,2.64,7,2.64,10.8-.36,8.12-.9,14.89-.72,22.8,0,3.78.68,7.67.24,11.28l-.48-.48c-2.86-4.4-1.24-13.41-3.6-21.6-4.54-.74-11.51-9.54-17-13.92h-1.2L204,213.29a86.12,86.12,0,0,1,.48,12.24" transform="translate(0 0.27)"/><path class="cls-2" d="M50.44,194.33c4.38.31,12.11,3.16,14.64,2.64-.45-4.78.19-9.62.24-14.4,5.76,4.57-3.61,16.09,6.48,21.6,0,.32.72,1.12.72,1.44-1.69-.4-2.56-1.08-4.8-1.2,0,5.31.84,9.47,1,13.92H68c-.17-2.15-1.14-3.83-1.68-5.52L65.08,203c-4.23-.32-13.2-2-15.12-.48a115,115,0,0,1-.24,19.68H49l-.24-.24c-.22-2.82-.34-8.69-1.2-11.52-.08-3.12-.64-5.28-.72-8.4-4.19,0-5.44-3.12-7.44-5.28l.48-.72,7-1.68.24-13.92,1,.24A35.12,35.12,0,0,1,50.44,194.33Z" transform="translate(0 0.27)"/><path class="cls-2" d="M134.2,215.93l22.32.48c0,.8.33,2.26,0,2.4L134,218.09c-3,.41-6.57-.43-11.28.24l-.24-.48c.18-1.09.17-1.21,1-1.68,10.63-4.59,12.86-16.64,19.44-25.2,1.78-2.31,7.28-4.51,7.92-7.44-4.89-.84-24.69,1.21-29.76-.72v-.72c4.93-1.68,31.37.12,35.76,0l-.24,3.6c-9.8,4.82-14.55,27.22-22.32,28.8Z" transform="translate(0 0.27)"/><path class="cls-2" d="M13.48,181.37l1.44,1a42.38,42.38,0,0,1,20.4,3.36,7.24,7.24,0,0,1-.48,3.36c-5.84,1.39-14.15-2.88-18.72-1l-1,8.16c-1.47,9.8.05,19.41,0,27.36l-1-.72-1.92-5.76V187.61c-4,.56-8,.64-12,1.2l.72-1c1.2-1.2,2.4-1.92,3.6-3.12C6.77,183.19,12.4,183.93,13.48,181.37Z" transform="translate(0 0.27)"/><path class="cls-2" d="M80.44,196.25c5.13-1.22,12.45-1.76,17.28,1.68-3.92.24-7.12.24-11,.48-1.82-.1-5.75-1.07-6.24-.24-.08,2.78.54,14.25,1.68,15.12A50.07,50.07,0,0,0,98,213.05c1.43-.53,2.48-1.61,4.32-2.16-.58,2.2-2.39,7.09-4.32,7.92-4.93,2.12-14.07,2.32-20.4,1,1.88-6.59,0-33.16,1.2-35l.72.48.24,1.44h1.2l2.88-1c5.44.24,9.71.54,16.32.72l.48.48v.48l-.24.24c-4.07,1-18.46.36-19.92,1.44Z" transform="translate(0 0.27)"/><text class="cls-3" transform="translate(1.69 258.9)"><tspan class="cls-4">G</tspan><tspan x="28.35" y="0">ANG</tspan><tspan class="cls-5" x="123.82" y="0">S</tspan><tspan x="147.42" y="0">TER</tspan></text><g class="cls-6"><path class="cls-7" d="M127.43,53.16c-.36-.25-.71-.5-1.08-.74C126.72,52.66,127.08,52.91,127.43,53.16Z" transform="translate(0 0.27)"/><path class="cls-7" d="M118.27,48.48c.39.13.77.27,1.16.42-.32-.13-.64-.25-1-.36A.6.6,0,0,0,118.27,48.48Z" transform="translate(0 0.27)"/><path class="cls-7" d="M143.11,82.49v.94C143.11,83.12,143.12,82.8,143.11,82.49Z" transform="translate(0 0.27)"/><path class="cls-8" d="M119.43,48.9a42.43,42.43,0,0,1,6.92,3.52A36.91,36.91,0,0,0,119.43,48.9Z" transform="translate(0 0.27)"/><path class="cls-8" d="M127.43,53.16l.24.16Z" transform="translate(0 0.27)"/><path class="cls-8" d="M129.55,54.77a42.55,42.55,0,0,1,4.84,4.74A38,38,0,0,0,129.55,54.77Z" transform="translate(0 0.27)"/><path class="cls-8" d="M135.38,60.73l-.28-.35Z" transform="translate(0 0.27)"/><path class="cls-8" d="M136.32,62l.06.1Z" transform="translate(0 0.27)"/><path class="cls-8" d="M137.62,64c-.26-.42-.53-.83-.8-1.23.32.5.63,1,.94,1.5C137.71,64.13,137.66,64,137.62,64Z" transform="translate(0 0.27)"/><path class="cls-8" d="M140.17,68.88A37.06,37.06,0,0,0,137.62,64c0,.09.09.18.14.27A40.36,40.36,0,0,1,140.17,68.88Z" transform="translate(0 0.27)"/><path class="cls-8" d="M140.33,69.26c.16.36.29.73.44,1.1C140.62,70,140.48,69.62,140.33,69.26Z" transform="translate(0 0.27)"/><path class="cls-8" d="M141.46,72.4a41.92,41.92,0,0,1,1.43,6.83A36.82,36.82,0,0,0,141.46,72.4Z" transform="translate(0 0.27)"/><path class="cls-8" d="M141.12,71.31c.06.2.13.39.19.59C141.25,71.7,141.18,71.51,141.12,71.31Z" transform="translate(0 0.27)"/><path class="cls-8" d="M143,80.31l0,.43C143,80.6,143,80.45,143,80.31Z" transform="translate(0 0.27)"/><path class="cls-8" d="M142.33,90.89c-.07.36-.14.71-.23,1.06C142.19,91.6,142.26,91.25,142.33,90.89Z" transform="translate(0 0.27)"/><path class="cls-8" d="M143.11,83.43a40.77,40.77,0,0,1-.65,6.85A35.84,35.84,0,0,0,143.11,83.43Z" transform="translate(0 0.27)"/><path class="cls-8" d="M138.48,101.22c-.11.21-.24.43-.36.65C138.24,101.65,138.37,101.43,138.48,101.22Z" transform="translate(0 0.27)"/><path class="cls-8" d="M141.61,93.78a41.54,41.54,0,0,1-2.73,6.71A36.44,36.44,0,0,0,141.61,93.78Z" transform="translate(0 0.27)"/><path class="cls-8" d="M141.8,93.14c-.05.16-.09.35-.15.51Z" transform="translate(0 0.27)"/><path class="cls-8" d="M131.8,109.9l-.24.23Z" transform="translate(0 0.27)"/><path class="cls-8" d="M137.3,103.21l0,0Z" transform="translate(0 0.27)"/><path class="cls-8" d="M129.52,111.91a41.88,41.88,0,0,1-5.76,3.85A37.54,37.54,0,0,0,129.52,111.91Z" transform="translate(0 0.27)"/><path class="cls-8" d="M123.43,115.93c-.34.19-.69.36-1,.53C122.74,116.3,123.09,116.12,123.43,115.93Z" transform="translate(0 0.27)"/><path class="cls-8" d="M121.55,116.87l-.6.26Z" transform="translate(0 0.27)"/><path class="cls-8" d="M120.41,117.36a42.54,42.54,0,0,1-6.83,2.08A37.25,37.25,0,0,0,120.41,117.36Z" transform="translate(0 0.27)"/><path class="cls-8" d="M113.12,119.53c-.3.07-.6.11-.91.16Z" transform="translate(0 0.27)"/><path class="cls-8" d="M102.75,120a37,37,0,0,0,4.36.17c.86,0,1.7-.08,2.54-.16A40.75,40.75,0,0,1,102.75,120Z" transform="translate(0 0.27)"/><path class="cls-8" d="M102.06,119.93l-1-.11Z" transform="translate(0 0.27)"/><path class="cls-8" d="M110.91,119.89h0Z" transform="translate(0 0.27)"/><path class="cls-8" d="M100,119.63l-.58-.1Z" transform="translate(0 0.27)"/><path class="cls-8" d="M91.79,117.21c-.39-.16-.78-.34-1.16-.52Z" transform="translate(0 0.27)"/><path class="cls-8" d="M88.72,115.72A40.93,40.93,0,0,1,83,111.86,36.79,36.79,0,0,0,88.72,115.72Z" transform="translate(0 0.27)"/><path class="cls-8" d="M82.32,111.33l-.41-.36Z" transform="translate(0 0.27)"/><path class="cls-8" d="M89.68,116.23l-.47-.24Z" transform="translate(0 0.27)"/><path class="cls-8" d="M75.36,103.39l-.52-.83Z" transform="translate(0 0.27)"/><path class="cls-8" d="M79.94,109.09a42.06,42.06,0,0,1-4.34-5.34A37.1,37.1,0,0,0,79.94,109.09Z" transform="translate(0 0.27)"/><path class="cls-8" d="M74.18,101.44a2.12,2.12,0,0,0,.11.21A1.39,1.39,0,0,1,74.18,101.44Z" transform="translate(0 0.27)"/><path class="cls-8" d="M109.38,46.6a40.51,40.51,0,0,1,8.89,1.88A36.54,36.54,0,0,0,109.38,46.6Z" transform="translate(0 0.27)"/><path class="cls-9" d="M195.84,70.39a82.55,82.55,0,0,0-1.81-9.5,81.53,81.53,0,0,0-6.17-16.37c-1.21-2.4-2.54-4.72-4-7a82.16,82.16,0,0,0-13.82-16.48c-.55-.51-1.13-1-1.7-1.49a81.25,81.25,0,0,0-19-12.28Q146.6,6,143.71,4.9a80.85,80.85,0,0,0-15-4A82.25,82.25,0,0,0,115.14-.27c-.75,0-1.48,0-2.22.06-1.74,0-3.47.14-5.18.29a80.88,80.88,0,0,0-20,4.39c-1.44.51-2.86,1-4.26,1.65a80.48,80.48,0,0,0-13.62,7.36,81.62,81.62,0,0,0-10.31,8.21c-1.62,1.5-3.18,3.06-4.66,4.69A81.66,81.66,0,0,0,43.48,42.45l0,0v0a81.1,81.1,0,0,0-7.2,18.39c-.39,1.53-.73,3.08-1,4.64a82.2,82.2,0,0,0-1.51,15.39v.24c0,2.4.12,4.77.33,7.12a80.34,80.34,0,0,0,2.29,13.43c.65,2.53,1.43,5,2.31,7.44A81.43,81.43,0,0,0,195.32,95.32c.38-2.19.69-4.41.89-6.66.23-2.47.36-5,.36-7.49A81.54,81.54,0,0,0,195.84,70.39Z" transform="translate(0 0.27)"/><path class="cls-9" d="M195.84,70.39a82.55,82.55,0,0,0-1.81-9.5,81.53,81.53,0,0,0-6.17-16.37c-1.21-2.4-2.54-4.72-4-7a82.16,82.16,0,0,0-13.82-16.48c-.55-.51-1.13-1-1.7-1.49a81.25,81.25,0,0,0-19-12.28Q146.6,6,143.71,4.9a80.85,80.85,0,0,0-15-4A82.25,82.25,0,0,0,115.14-.27c-.75,0-1.48,0-2.22.06-1.74,0-3.47.14-5.18.29a80.88,80.88,0,0,0-20,4.39c-1.44.51-2.86,1-4.26,1.65a80.48,80.48,0,0,0-13.62,7.36,81.62,81.62,0,0,0-10.31,8.21c-1.62,1.5-3.18,3.06-4.66,4.69A81.66,81.66,0,0,0,43.48,42.45l0,0v0a81.1,81.1,0,0,0-7.2,18.39,80.35,80.35,0,0,1,8.16-5.76,85.61,85.61,0,0,1,10.06-5.32c1.74-.78,3.53-1.5,5.36-2.18,1.36-.51,2.75-1,4.16-1.44l.29-.1c2.83-.88,5.66-1.6,8.47-2.19s5.4-1,8.06-1.32c2.47-.28,4.91-.44,7.32-.5s4.54,0,6.76.12,4.17.34,6.19.64,3.83.63,5.69,1.06q1.32.31,2.61.66a56.3,56.3,0,0,1,16,7.1,36.23,36.23,0,0,0-6.92-3.13c.33.11.65.23,1,.36a36.91,36.91,0,0,1,6.92,3.52c.37.24.72.49,1.08.74l.24.16c.64.46,1.27,1,1.88,1.45a38,38,0,0,1,4.84,4.74l.71.87.28.35c.32.41.63.82.94,1.25l.06.1.44.64c.27.4.54.81.8,1.23a37.06,37.06,0,0,1,2.55,4.93c.06.13.11.25.16.38.15.36.29.73.44,1.1s.23.63.35,1,.13.39.19.59.11.33.15.5a36.82,36.82,0,0,1,1.43,6.83c0,.36.08.72.11,1.08,0,.14,0,.29,0,.43,0,.46.05.92.07,1.38s0,.88,0,1.31a35.84,35.84,0,0,1-.65,6.85c0,.21-.09.41-.13.61-.07.36-.14.71-.23,1.06s-.2.79-.3,1.19l-.15.51a.93.93,0,0,1,0,.13,36.44,36.44,0,0,1-2.73,6.71c-.13.25-.26.48-.4.73s-.24.43-.36.65c-.27.45-.53.9-.82,1.34l0,0c-.14.22-.29.43-.44.65a40.56,40.56,0,0,1-4.25,5.21c-.25.27-.52.53-.79.8l-.24.23c-.66.62-1.34,1.21-2,1.78a37.54,37.54,0,0,1-5.76,3.85l-.33.17c-.34.19-.69.37-1,.53l-.84.41-.6.26-.54.23a37.25,37.25,0,0,1-6.83,2.08l-.46.09-.91.16-1.3.2h-.11l-1.15.11c-.84.08-1.68.14-2.54.16a37,37,0,0,1-4.36-.17l-.69-.07-1-.11-1.15-.19-.58-.1-.39-.08a41.52,41.52,0,0,1-6.9-2.12l-.29-.12-1.16-.52-.95-.46-.47-.24-.49-.27A36.79,36.79,0,0,1,83,111.86l-.65-.53-.41-.36c-.68-.6-1.34-1.23-2-1.88a37.1,37.1,0,0,1-4.34-5.34l-.24-.36-.52-.83c-.18-.3-.37-.6-.55-.91a2.12,2.12,0,0,1-.11-.21c-.16-.27-.31-.56-.46-.84l0-.1a.33.33,0,0,0,0,.06l-.17-.25c-.46-.76-.89-1.55-1.3-2.35-.08-.16-.17-.32-.25-.49l0-.06s0,.06,0,.1c.25.72.53,1.44.81,2.16.49,1.22,1,2.44,1.62,3.65.68,1.39,1.42,2.78,2.23,4.15s1.87,3,2.91,4.48,2.26,3,3.51,4.52,2.68,3,4.14,4.5,3.15,3,4.86,4.47,3.73,3,5.73,4.4,4.36,2.93,6.69,4.27c2.52,1.45,5.16,2.79,7.89,4,.57.25,1.13.52,1.71.76,1.28.55,2.57,1.05,3.86,1.53s2.46.88,3.68,1.28c17,5.49,33.92,5.36,47.44.45a81.15,81.15,0,0,0,26.25-46.83c.38-2.19.69-4.41.89-6.66.23-2.47.36-5,.36-7.49A81.54,81.54,0,0,0,195.84,70.39Z" transform="translate(0 0.27)"/><path class="cls-8" d="M195.84,70.39a82.55,82.55,0,0,0-1.81-9.5,47.23,47.23,0,0,1-.87,5.19,55.55,55.55,0,0,1-4.9,13.26c-6.61,12.82-18.38,24.77-33.95,33a89.46,89.46,0,0,1-14.85,6.2c-.81.26-1.63.49-2.45.72q-3.52,1-7,1.67-3.28.61-6.53,1-3.09.31-6.1.37c-1.93,0-3.84,0-5.72-.13s-3.57-.3-5.31-.57c-1.58-.23-3.12-.54-4.63-.89-1.31-.3-2.59-.65-3.85-1.05-.74-.23-1.47-.47-2.19-.73l-.75-.29c-.57-.22-1.14-.44-1.7-.68-1-.43-2-.9-3-1.4l.44.19-.95-.46-.47-.24-.49-.27A36.79,36.79,0,0,1,83,111.86l-.65-.53-.41-.36c-.68-.6-1.34-1.23-2-1.88a37.1,37.1,0,0,1-4.34-5.34l-.24-.36-.52-.83c-.18-.3-.37-.6-.55-.91a2.12,2.12,0,0,1-.11-.21c-.16-.27-.31-.56-.46-.84l0-.1a.33.33,0,0,0,0,.06l-.17-.25c-.46-.76-.89-1.55-1.3-2.35-.08-.16-.17-.32-.25-.49l0-.06s0,.06,0,.1c.25.72.53,1.44.81,2.16.49,1.22,1,2.44,1.62,3.65.68,1.39,1.42,2.78,2.23,4.15s1.87,3,2.91,4.48,2.26,3,3.51,4.52,2.68,3,4.14,4.5,3.15,3,4.86,4.47,3.73,3,5.73,4.4,4.36,2.93,6.69,4.27c2.52,1.45,5.16,2.79,7.89,4,.57.25,1.13.52,1.71.76,1.28.55,2.57,1.05,3.86,1.53s2.46.88,3.68,1.28c17,5.49,33.92,5.36,47.44.45a81.55,81.55,0,0,0,19-24.7c-13,12.38-34.6,19.25-58.09,16.75-.62-.07-1.23-.16-1.85-.24l-.87-.11q-4-.54-7.85-1.43t-7.64-2.13q-3.49-1.14-6.77-2.54-3.09-1.32-6-2.85c-1.83-1-3.58-2-5.27-3.1s-3.19-2.16-4.68-3.31-2.8-2.24-4.09-3.42-2.29-2.19-3.35-3.33c-.91-1-1.78-2-2.6-3a41.51,41.51,0,0,0,6.7,5.5c.62.46,1.24.91,1.89,1.34,1.08.75,2.21,1.45,3.37,2.13,1.35.78,2.73,1.52,4.17,2.21s3.22,1.45,4.91,2.08,3.58,1.26,5.44,1.8,3.92,1,5.95,1.42,4.3.76,6.52,1,4.77.41,7.22.46c2.61,0,5.25,0,7.93-.2l1.2-.09a87.43,87.43,0,0,0,9.43-1.3c23.17-4.44,41.77-17.28,50.65-32.9.65-1.15,1.26-2.32,1.8-3.51.23-2.47.36-5,.36-7.49A81.54,81.54,0,0,0,195.84,70.39ZM77.62,106.89l-.46-.65a35.7,35.7,0,0,0,2.59,2.93,35.27,35.27,0,0,0,3.93,3.42c.46.39.94.76,1.42,1.14A36.85,36.85,0,0,1,77.62,106.89Z" transform="translate(0 0.27)"/><path class="cls-8" d="M170.21,60.24a88,88,0,0,1-7.89,20.36A86,86,0,0,1,145,103.16c-1,.89-1.93,1.75-2.92,2.57-1.59,1.33-3.21,2.56-4.86,3.71s-3.19,2.14-4.82,3.09-3.14,1.74-4.72,2.49-2.89,1.29-4.35,1.84c-1.25.48-2.51.9-3.77,1.28-.74.22-1.48.43-2.23.61-.25.07-.51.12-.77.18l-1.79.39c-1.1.21-2.19.37-3.28.51l.77-.14-1.3.2h-.11l-1.15.11c-.84.08-1.68.14-2.54.16a37,37,0,0,1-4.36-.17l-.69-.07-1-.11-1.15-.19.62.12c1.08.19,2.17.35,3.28.47.6.06,1.21.11,1.82.15l.8,0c.77,0,1.54.06,2.31.07,1.31,0,2.64,0,4-.12,1.55-.1,3.12-.26,4.69-.5,1.75-.25,3.49-.59,5.25-1s3.67-1,5.51-1.55,3.82-1.33,5.73-2.14,4-1.77,6-2.8c1-.53,2-1.08,3-1.66a87.56,87.56,0,0,0,17.78-13.66,84.58,84.58,0,0,0,19.08-28.43,69,69,0,0,0,3.78-13,56,56,0,0,0,.81-14.1c-.1-1.35-.26-2.66-.46-4a82.16,82.16,0,0,0-13.82-16.48c-.55-.51-1.13-1-1.7-1.49.13.32.26.65.38,1a55.75,55.75,0,0,1,3.34,13.73,68,68,0,0,1,.18,13.56A77.23,77.23,0,0,1,170.21,60.24Z" transform="translate(0 0.27)"/><path class="cls-8" d="M133.52,5.89a68.93,68.93,0,0,1,7.73,11.16,78.44,78.44,0,0,1,5.2,11.44,83.92,83.92,0,0,1,3.16,10.94,90,90,0,0,1,1.62,10,3,3,0,0,0,0,.31,82.57,82.57,0,0,1-5.39,39.5c-.52,1.27-1.08,2.51-1.67,3.73q-1.17,2.43-2.52,4.7c-.82,1.37-1.68,2.68-2.58,4-.77,1.09-1.58,2.15-2.42,3.16-.49.6-1,1.18-1.5,1.75-.18.2-.36.38-.54.57-.42.45-.84.9-1.27,1.32-.78.79-1.6,1.54-2.43,2.25l.62-.59c-.66.62-1.34,1.21-2,1.78a37.54,37.54,0,0,1-5.76,3.85l-.33.17c-.34.19-.69.37-1,.53l-.84.41.31-.14c1-.45,2-.92,3-1.44.54-.29,1.08-.59,1.61-.9l.68-.39c.65-.39,1.31-.81,2-1.24,1.1-.72,2.18-1.5,3.24-2.32,1.23-1,2.44-2,3.61-3s2.56-2.44,3.79-3.77,2.52-2.83,3.71-4.36c.83-1.06,1.64-2.15,2.42-3.27a84.54,84.54,0,0,0,13.23-31.65A92.94,92.94,0,0,0,160.54,54a86.84,86.84,0,0,0,.16-11.38,79.24,79.24,0,0,0-1.64-12.47,68.83,68.83,0,0,0-4.14-12.93,57.13,57.13,0,0,0-5.53-9.91Q146.6,6,143.71,4.9a80.85,80.85,0,0,0-15-4A58.5,58.5,0,0,1,133.52,5.89Z" transform="translate(0 0.27)"/><path class="cls-8" d="M80.81,42.59c2.47-.28,4.91-.44,7.32-.5s4.54,0,6.76.12,4.17.34,6.19.64,3.83.63,5.69,1.06q1.32.31,2.61.66a56.3,56.3,0,0,1,16,7.1c.94.62,1.83,1.27,2.7,1.93l-.41-.28c.64.46,1.27,1,1.88,1.45a38,38,0,0,1,4.84,4.74l.71.87.28.35c.32.41.63.82.94,1.25l.06.1.44.64c.27.4.54.81.8,1.23a37.06,37.06,0,0,1,2.55,4.93c.06.13.11.25.16.38.15.36.29.73.44,1.1s.23.63.35,1,.13.39.19.59.11.33.15.5a36.82,36.82,0,0,1,1.43,6.83c0,.36.08.72.11,1.08,0,.14,0,.29,0,.43,0,.54.06,1.08.08,1.63,0-.29,0-.58,0-.88,0-1.1-.09-2.2-.2-3.31a34.7,34.7,0,0,1,.22,9.11c-.1.6-.2,1.2-.32,1.79-.21,1.09-.47,2.17-.77,3.23,0-.12.06-.24.08-.36-.09.4-.2.79-.3,1.19l-.15.51a.93.93,0,0,1,0,.13,36.44,36.44,0,0,1-2.73,6.71c-.13.25-.26.48-.4.73s-.24.43-.36.65c-.27.45-.53.9-.82,1.34l.55-.86c.59-.93,1.15-1.88,1.68-2.86.28-.54.55-1.09.82-1.64.12-.24.24-.47.35-.7.32-.7.63-1.4.93-2.11.5-1.22,1-2.47,1.39-3.74.5-1.48.94-3,1.32-4.54.3-1.23.56-2.5.79-3.78a78.31,78.31,0,0,0-2.65-36.63c-.84-2.74-1.82-5.49-3-8.22l-.12-.29a90,90,0,0,0-4.47-9.14,84.17,84.17,0,0,0-6.22-9.54,77.55,77.55,0,0,0-8.31-9.43,68.67,68.67,0,0,0-10.65-8.42c-.67-.43-1.33-.84-2-1.23a80.88,80.88,0,0,0-20,4.39A68.75,68.75,0,0,1,98.32,8.81,77.71,77.71,0,0,1,109,15.41a83.08,83.08,0,0,1,8.72,7.3,89.84,89.84,0,0,1,6.94,7.45l.21.24q2.82,3.42,5.22,7,2.32,3.44,4.26,7a73.48,73.48,0,0,1,9.36,32.7c0,1.06,0,2.11,0,3.16,0,1.34-.11,2.66-.24,4-.08.76-.17,1.53-.28,2.29a37.16,37.16,0,0,0-.57-10.15c0-.26-.07-.51-.11-.77-.11-.75-.25-1.51-.4-2.27s-.26-1.22-.41-1.84c-2.29-9.66-7.41-19.44-14.93-28.24q-2.36-2.74-5-5.37c-1.92-1.87-4-3.68-6.1-5.41s-4.58-3.55-7-5.19l-.26-.16A90.6,90.6,0,0,0,99.57,22,86.61,86.61,0,0,0,89.1,17.55a78.33,78.33,0,0,0-12.17-3.18,70,70,0,0,0-7.07-.89,81.62,81.62,0,0,0-10.31,8.21c-1.62,1.5-3.18,3.06-4.66,4.69,1-.17,2.12-.32,3.21-.46a80,80,0,0,1,12.56-.5A85.53,85.53,0,0,1,82,26.62a88.17,88.17,0,0,1,9.92,2.31l.3.07c2.84.85,5.58,1.83,8.25,2.91s5,2.17,7.41,3.4c2.21,1.15,4.32,2.38,6.36,3.68s3.77,2.51,5.54,3.87a63.65,63.65,0,0,1,19,22.47s0,.08,0,.11c.11.2.19.4.28.6a36.69,36.69,0,0,0-2-3.33c-.2-.3-.42-.57-.63-.86a35.62,35.62,0,0,0-2.63-3.23c-.39-.46-.8-.92-1.2-1.38a55.86,55.86,0,0,0-8.07-7.35,65.59,65.59,0,0,0-11.39-6.8q-2.78-1.31-5.75-2.41c-1.8-.67-3.65-1.29-5.55-1.84l-.88-.25c-2.32-.64-4.7-1.2-7.15-1.65-2.63-.49-5.33-.85-8.08-1.1s-5.78-.39-8.74-.37h-.31a88.86,88.86,0,0,0-10.16.69,86.35,86.35,0,0,0-11.18,2.15,79.41,79.41,0,0,0-11.84,4.13l0,0v0a81.1,81.1,0,0,0-7.2,18.39,80.35,80.35,0,0,1,8.16-5.76,85.61,85.61,0,0,1,10.06-5.32c1.74-.78,3.53-1.5,5.36-2.18,1.36-.51,2.75-1,4.16-1.44l.29-.1c2.83-.88,5.66-1.6,8.47-2.19S78.15,42.9,80.81,42.59Z" transform="translate(0 0.27)"/></g><path class="cls-8" d="M195.84,70.39a82.55,82.55,0,0,0-1.81-9.5,47.23,47.23,0,0,1-.87,5.19,55.55,55.55,0,0,1-4.9,13.26c-6.61,12.82-18.38,24.77-33.95,33a89.46,89.46,0,0,1-14.85,6.2c-.81.26-1.63.49-2.45.72q-3.52,1-7,1.67-3.28.61-6.53,1-3.09.31-6.1.37c-1.93,0-3.84,0-5.72-.13s-3.57-.3-5.31-.57c-1.58-.23-3.12-.54-4.63-.89-1.31-.3-2.59-.65-3.85-1.05-.74-.23-1.47-.47-2.19-.73l-.75-.29c-.57-.22-1.14-.44-1.7-.68-1-.43-2-.9-3-1.4l.44.19-.95-.46-.47-.24-.49-.27A36.79,36.79,0,0,1,83,111.86l-.65-.53-.41-.36c-.68-.6-1.34-1.23-2-1.88a37.1,37.1,0,0,1-4.34-5.34l-.24-.36-.52-.83c-.18-.3-.37-.6-.55-.91a2.12,2.12,0,0,1-.11-.21c-.16-.27-.31-.56-.46-.84l0-.1a.33.33,0,0,0,0,.06l-.17-.25c-.46-.76-.89-1.55-1.3-2.35-.08-.16-.17-.32-.25-.49l0-.06s0,.06,0,.1c.25.72.53,1.44.81,2.16.49,1.22,1,2.44,1.62,3.65.68,1.39,1.42,2.78,2.23,4.15s1.87,3,2.91,4.48,2.26,3,3.51,4.52,2.68,3,4.14,4.5,3.15,3,4.86,4.47,3.73,3,5.73,4.4,4.36,2.93,6.69,4.27c2.52,1.45,5.16,2.79,7.89,4,.57.25,1.13.52,1.71.76,1.28.55,2.57,1.05,3.86,1.53s2.46.88,3.68,1.28c17,5.49,33.92,5.36,47.44.45a81.55,81.55,0,0,0,19-24.7c-13,12.38-34.6,19.25-58.09,16.75-.62-.07-1.23-.16-1.85-.24l-.87-.11q-4-.54-7.85-1.43t-7.64-2.13q-3.49-1.14-6.77-2.54-3.09-1.32-6-2.85c-1.83-1-3.58-2-5.27-3.1s-3.19-2.16-4.68-3.31-2.8-2.24-4.09-3.42-2.29-2.19-3.35-3.33c-.91-1-1.78-2-2.6-3a41.51,41.51,0,0,0,6.7,5.5c.62.46,1.24.91,1.89,1.34,1.08.75,2.21,1.45,3.37,2.13,1.35.78,2.73,1.52,4.17,2.21s3.22,1.45,4.91,2.08,3.58,1.26,5.44,1.8,3.92,1,5.95,1.42,4.3.76,6.52,1,4.77.41,7.22.46c2.61,0,5.25,0,7.93-.2l1.2-.09a87.43,87.43,0,0,0,9.43-1.3c23.17-4.44,41.77-17.28,50.65-32.9.65-1.15,1.26-2.32,1.8-3.51.23-2.47.36-5,.36-7.49A81.54,81.54,0,0,0,195.84,70.39ZM77.62,106.89l-.46-.65a35.7,35.7,0,0,0,2.59,2.93,35.27,35.27,0,0,0,3.93,3.42c.46.39.94.76,1.42,1.14A36.85,36.85,0,0,1,77.62,106.89Z" transform="translate(0 0.27)"/><path class="cls-8" d="M170.21,60.24a88,88,0,0,1-7.89,20.36A86,86,0,0,1,145,103.16c-1,.89-1.93,1.75-2.92,2.57-1.59,1.33-3.21,2.56-4.86,3.71s-3.19,2.14-4.82,3.09-3.14,1.74-4.72,2.49-2.89,1.29-4.35,1.84c-1.25.48-2.51.9-3.77,1.28-.74.22-1.48.43-2.23.61-.25.07-.51.12-.77.18l-1.79.39c-1.1.21-2.19.37-3.28.51l.77-.14-1.3.2h-.11l-1.15.11c-.84.08-1.68.14-2.54.16a37,37,0,0,1-4.36-.17l-.69-.07-1-.11-1.15-.19.62.12c1.08.19,2.17.35,3.28.47.6.06,1.21.11,1.82.15l.8,0c.77,0,1.54.06,2.31.07,1.31,0,2.64,0,4-.12,1.55-.1,3.12-.26,4.69-.5,1.75-.25,3.49-.59,5.25-1s3.67-1,5.51-1.55,3.82-1.33,5.73-2.14,4-1.77,6-2.8c1-.53,2-1.08,3-1.66a87.56,87.56,0,0,0,17.78-13.66,84.58,84.58,0,0,0,19.08-28.43,69,69,0,0,0,3.78-13,56,56,0,0,0,.81-14.1c-.1-1.35-.26-2.66-.46-4a82.16,82.16,0,0,0-13.82-16.48c-.55-.51-1.13-1-1.7-1.49.13.32.26.65.38,1a55.75,55.75,0,0,1,3.34,13.73,68,68,0,0,1,.18,13.56A77.23,77.23,0,0,1,170.21,60.24Z" transform="translate(0 0.27)"/><path class="cls-8" d="M133.52,5.89a68.93,68.93,0,0,1,7.73,11.16,78.44,78.44,0,0,1,5.2,11.44,83.92,83.92,0,0,1,3.16,10.94,90,90,0,0,1,1.62,10,3,3,0,0,0,0,.31,82.57,82.57,0,0,1-5.39,39.5c-.52,1.27-1.08,2.51-1.67,3.73q-1.17,2.43-2.52,4.7c-.82,1.37-1.68,2.68-2.58,4-.77,1.09-1.58,2.15-2.42,3.16-.49.6-1,1.18-1.5,1.75-.18.2-.36.38-.54.57-.42.45-.84.9-1.27,1.32-.78.79-1.6,1.54-2.43,2.25l.62-.59c-.66.62-1.34,1.21-2,1.78a37.54,37.54,0,0,1-5.76,3.85l-.33.17c-.34.19-.69.37-1,.53l-.84.41.31-.14c1-.45,2-.92,3-1.44.54-.29,1.08-.59,1.61-.9l.68-.39c.65-.39,1.31-.81,2-1.24,1.1-.72,2.18-1.5,3.24-2.32,1.23-1,2.44-2,3.61-3s2.56-2.44,3.79-3.77,2.52-2.83,3.71-4.36c.83-1.06,1.64-2.15,2.42-3.27a84.54,84.54,0,0,0,13.23-31.65A92.94,92.94,0,0,0,160.54,54a86.84,86.84,0,0,0,.16-11.38,79.24,79.24,0,0,0-1.64-12.47,68.83,68.83,0,0,0-4.14-12.93,57.13,57.13,0,0,0-5.53-9.91Q146.6,6,143.71,4.9a80.85,80.85,0,0,0-15-4A58.5,58.5,0,0,1,133.52,5.89Z" transform="translate(0 0.27)"/><path class="cls-8" d="M80.81,42.59c2.47-.28,4.91-.44,7.32-.5s4.54,0,6.76.12,4.17.34,6.19.64,3.83.63,5.69,1.06q1.32.31,2.61.66a56.3,56.3,0,0,1,16,7.1c.94.62,1.83,1.27,2.7,1.93l-.41-.28c.64.46,1.27,1,1.88,1.45a38,38,0,0,1,4.84,4.74l.71.87.28.35c.32.41.63.82.94,1.25l.06.1.44.64c.27.4.54.81.8,1.23a37.06,37.06,0,0,1,2.55,4.93c.06.13.11.25.16.38.15.36.29.73.44,1.1s.23.63.35,1,.13.39.19.59.11.33.15.5a36.82,36.82,0,0,1,1.43,6.83c0,.36.08.72.11,1.08,0,.14,0,.29,0,.43,0,.54.06,1.08.08,1.63,0-.29,0-.58,0-.88,0-1.1-.09-2.2-.2-3.31a34.7,34.7,0,0,1,.22,9.11c-.1.6-.2,1.2-.32,1.79-.21,1.09-.47,2.17-.77,3.23,0-.12.06-.24.08-.36-.09.4-.2.79-.3,1.19l-.15.51a.93.93,0,0,1,0,.13,36.44,36.44,0,0,1-2.73,6.71c-.13.25-.26.48-.4.73s-.24.43-.36.65c-.27.45-.53.9-.82,1.34l.55-.86c.59-.93,1.15-1.88,1.68-2.86.28-.54.55-1.09.82-1.64.12-.24.24-.47.35-.7.32-.7.63-1.4.93-2.11.5-1.22,1-2.47,1.39-3.74.5-1.48.94-3,1.32-4.54.3-1.23.56-2.5.79-3.78a78.31,78.31,0,0,0-2.65-36.63c-.84-2.74-1.82-5.49-3-8.22l-.12-.29a90,90,0,0,0-4.47-9.14,84.17,84.17,0,0,0-6.22-9.54,77.55,77.55,0,0,0-8.31-9.43,68.67,68.67,0,0,0-10.65-8.42c-.67-.43-1.33-.84-2-1.23a80.88,80.88,0,0,0-20,4.39A68.75,68.75,0,0,1,98.32,8.81,77.71,77.71,0,0,1,109,15.41a83.08,83.08,0,0,1,8.72,7.3,89.84,89.84,0,0,1,6.94,7.45l.21.24q2.82,3.42,5.22,7,2.32,3.44,4.26,7a73.48,73.48,0,0,1,9.36,32.7c0,1.06,0,2.11,0,3.16,0,1.34-.11,2.66-.24,4-.08.76-.17,1.53-.28,2.29a37.16,37.16,0,0,0-.57-10.15c0-.26-.07-.51-.11-.77-.11-.75-.25-1.51-.4-2.27s-.26-1.22-.41-1.84c-2.29-9.66-7.41-19.44-14.93-28.24q-2.36-2.74-5-5.37c-1.92-1.87-4-3.68-6.1-5.41s-4.58-3.55-7-5.19l-.26-.16A90.6,90.6,0,0,0,99.57,22,86.61,86.61,0,0,0,89.1,17.55a78.33,78.33,0,0,0-12.17-3.18,70,70,0,0,0-7.07-.89,81.62,81.62,0,0,0-10.31,8.21c-1.62,1.5-3.18,3.06-4.66,4.69,1-.17,2.12-.32,3.21-.46a80,80,0,0,1,12.56-.5A85.53,85.53,0,0,1,82,26.62a88.17,88.17,0,0,1,9.92,2.31l.3.07c2.84.85,5.58,1.83,8.25,2.91s5,2.17,7.41,3.4c2.21,1.15,4.32,2.38,6.36,3.68s3.77,2.51,5.54,3.87a63.65,63.65,0,0,1,19,22.47s0,.08,0,.11c.11.2.19.4.28.6a36.69,36.69,0,0,0-2-3.33c-.2-.3-.42-.57-.63-.86a35.62,35.62,0,0,0-2.63-3.23c-.39-.46-.8-.92-1.2-1.38a55.86,55.86,0,0,0-8.07-7.35,65.59,65.59,0,0,0-11.39-6.8q-2.78-1.31-5.75-2.41c-1.8-.67-3.65-1.29-5.55-1.84l-.88-.25c-2.32-.64-4.7-1.2-7.15-1.65-2.63-.49-5.33-.85-8.08-1.1s-5.78-.39-8.74-.37h-.31a88.86,88.86,0,0,0-10.16.69,86.35,86.35,0,0,0-11.18,2.15,79.41,79.41,0,0,0-11.84,4.13l0,0v0a81.1,81.1,0,0,0-7.2,18.39,80.35,80.35,0,0,1,8.16-5.76,85.61,85.61,0,0,1,10.06-5.32c1.74-.78,3.53-1.5,5.36-2.18,1.36-.51,2.75-1,4.16-1.44l.29-.1c2.83-.88,5.66-1.6,8.47-2.19S78.15,42.9,80.81,42.59Z" transform="translate(0 0.27)"/><path class="cls-7" d="M127.43,53.16c-.36-.25-.71-.5-1.08-.74C126.72,52.66,127.08,52.91,127.43,53.16Z" transform="translate(0 0.27)"/><path class="cls-7" d="M143.11,82.49v.94C143.11,83.12,143.12,82.8,143.11,82.49Z" transform="translate(0 0.27)"/><path class="cls-8" d="M127.43,53.16l.24.16Z" transform="translate(0 0.27)"/><path class="cls-8" d="M129.55,54.77a42.55,42.55,0,0,1,4.84,4.74A38,38,0,0,0,129.55,54.77Z" transform="translate(0 0.27)"/><path class="cls-8" d="M135.38,60.73l-.28-.35Z" transform="translate(0 0.27)"/><path class="cls-8" d="M136.32,62l.06.1Z" transform="translate(0 0.27)"/><path class="cls-8" d="M137.62,64c-.26-.42-.53-.83-.8-1.23.32.5.63,1,.94,1.5C137.71,64.13,137.66,64,137.62,64Z" transform="translate(0 0.27)"/><path class="cls-8" d="M140.17,68.88A37.06,37.06,0,0,0,137.62,64c0,.09.09.18.14.27A40.36,40.36,0,0,1,140.17,68.88Z" transform="translate(0 0.27)"/><path class="cls-8" d="M140.33,69.26c.16.36.29.73.44,1.1C140.62,70,140.48,69.62,140.33,69.26Z" transform="translate(0 0.27)"/><path class="cls-8" d="M141.46,72.4a41.92,41.92,0,0,1,1.43,6.83A36.82,36.82,0,0,0,141.46,72.4Z" transform="translate(0 0.27)"/><path class="cls-8" d="M141.12,71.31c.06.2.13.39.19.59C141.25,71.7,141.18,71.51,141.12,71.31Z" transform="translate(0 0.27)"/><path class="cls-8" d="M143,80.31l0,.43C143,80.6,143,80.45,143,80.31Z" transform="translate(0 0.27)"/><path class="cls-8" d="M142.33,90.89c-.07.36-.14.71-.23,1.06C142.19,91.6,142.26,91.25,142.33,90.89Z" transform="translate(0 0.27)"/><path class="cls-8" d="M143.11,83.43a40.77,40.77,0,0,1-.65,6.85A35.84,35.84,0,0,0,143.11,83.43Z" transform="translate(0 0.27)"/><path class="cls-8" d="M138.48,101.22c-.11.21-.24.43-.36.65C138.24,101.65,138.37,101.43,138.48,101.22Z" transform="translate(0 0.27)"/><path class="cls-8" d="M141.61,93.78a41.54,41.54,0,0,1-2.73,6.71A36.44,36.44,0,0,0,141.61,93.78Z" transform="translate(0 0.27)"/><path class="cls-8" d="M141.8,93.14c-.05.16-.09.35-.15.51Z" transform="translate(0 0.27)"/><path class="cls-8" d="M131.8,109.9l-.24.23Z" transform="translate(0 0.27)"/><path class="cls-8" d="M137.3,103.21l0,0Z" transform="translate(0 0.27)"/><path class="cls-8" d="M129.52,111.91a41.88,41.88,0,0,1-5.76,3.85A37.54,37.54,0,0,0,129.52,111.91Z" transform="translate(0 0.27)"/><path class="cls-8" d="M123.43,115.93c-.34.19-.69.36-1,.53C122.74,116.3,123.09,116.12,123.43,115.93Z" transform="translate(0 0.27)"/><path class="cls-8" d="M121.55,116.87l-.6.26Z" transform="translate(0 0.27)"/><path class="cls-8" d="M120.41,117.36a42.54,42.54,0,0,1-6.83,2.08A37.25,37.25,0,0,0,120.41,117.36Z" transform="translate(0 0.27)"/><path class="cls-8" d="M113.12,119.53c-.3.07-.6.11-.91.16Z" transform="translate(0 0.27)"/><path class="cls-8" d="M102.75,120a37,37,0,0,0,4.36.17c.86,0,1.7-.08,2.54-.16A40.75,40.75,0,0,1,102.75,120Z" transform="translate(0 0.27)"/><path class="cls-8" d="M102.06,119.93l-1-.11Z" transform="translate(0 0.27)"/><path class="cls-8" d="M110.91,119.89h0Z" transform="translate(0 0.27)"/><path class="cls-8" d="M142.33,90.89c-.07.36-.14.71-.23,1.06,0,.12,0,.24-.08.36.3-1.06.56-2.14.77-3.23.12-.59.22-1.19.32-1.79a34.7,34.7,0,0,0-.22-9.11c.11,1.11.17,2.21.2,3.31,0,.65,0,1.3,0,1.94a35.84,35.84,0,0,1-.65,6.85C142.42,90.49,142.37,90.69,142.33,90.89Z" transform="translate(0 0.27)"/><path class="cls-10" d="M85.1,113.73c-.48-.38-1-.75-1.42-1.14a35.27,35.27,0,0,1-3.93-3.42,35.7,35.7,0,0,1-2.59-2.93l.46.65A36.85,36.85,0,0,0,85.1,113.73Z" transform="translate(0 0.27)"/><path class="cls-8" d="M100,119.63l-.58-.1Z" transform="translate(0 0.27)"/><path class="cls-8" d="M91.79,117.21c-.39-.16-.78-.34-1.16-.52Z" transform="translate(0 0.27)"/><path class="cls-8" d="M88.72,115.72A40.93,40.93,0,0,1,83,111.86,36.79,36.79,0,0,0,88.72,115.72Z" transform="translate(0 0.27)"/><path class="cls-8" d="M82.32,111.33l-.41-.36Z" transform="translate(0 0.27)"/><path class="cls-8" d="M89.68,116.23l-.47-.24Z" transform="translate(0 0.27)"/><path class="cls-8" d="M75.36,103.39l-.52-.83Z" transform="translate(0 0.27)"/><path class="cls-8" d="M79.94,109.09a42.06,42.06,0,0,1-4.34-5.34A37.1,37.1,0,0,0,79.94,109.09Z" transform="translate(0 0.27)"/><path class="cls-8" d="M74.18,101.44a2.12,2.12,0,0,0,.11.21A1.39,1.39,0,0,1,74.18,101.44Z" transform="translate(0 0.27)"/><polygon class="cls-8" points="125.91 70.72 126.22 112.83 96.07 84.25 125.91 70.72"/><path class="cls-9" d="M87.31,74.32a20.55,20.55,0,1,1,27,10.79A20.55,20.55,0,0,1,87.31,74.32Z" transform="translate(0 0.27)"/><path class="cls-8" d="M113.08,69a4,4,0,1,1,3.06,4.76A4,4,0,0,1,113.08,69Z" transform="translate(0 0.27)"/></g></g></svg>